<svg xmlns="http://www.w3.org/2000/svg" width="1280" height="631" viewBox="0 0 1280 631" fill="none"><mask id="mask0_344_6128" style="mask-type:alpha" maskUnits="userSpaceOnUse" x="0" y="0" width="1280" height="631"><path d="M0 0H1280V513.091L0 630.667V0Z" fill="url(#paint0_linear_344_6128)"></path></mask><g mask="url(#mask0_344_6128)"><path d="M0 0H1280V513.091L0 630.667V0Z" fill="url(#paint1_linear_344_6128)"></path><g style="mix-blend-mode:multiply" opacity="0.2"><path d="M3.71152 658.656C-178.935 631.269 -326.217 559.665 -439.336 480.156V482.757C-410.396 503.157 -380.615 521.925 -350.114 539.112C-243.9 599.037 -128.86 639.225 -7.81648 658.656H3.71152Z" fill="url(#paint2_linear_344_6128)"></path><path d="M107.103 658.661C87.7097 655.601 67.4757 652.898 46.4011 650.552C-158.701 627.551 -319.313 549.317 -439.336 461.648V464.351C-406.373 488.423 -372.209 510.404 -337.025 530.141C-219.944 595.829 -91.0343 636.935 46.1609 652.337C63.1527 654.224 79.5441 656.366 95.335 658.661H107.103Z" fill="url(#paint3_linear_344_6128)"></path><path d="M209.895 658.661C169.727 651.113 125.476 645.044 76.7822 640.709C-145.432 620.87 -315.23 536.975 -439.336 442.727V445.481C-402.47 473.582 -363.984 498.776 -323.996 521.114C-202.892 588.74 -68.0983 629.591 76.5421 642.443C121.453 646.421 162.522 651.929 200.108 658.661H209.895Z" fill="url(#paint4_linear_344_6128)"></path><path d="M309.684 658.657C249.342 645.193 182.035 635.962 107.163 630.811C-132.583 614.44 -311.387 524.578 -439.336 423.445V426.301C-398.627 458.533 -355.758 487.144 -310.967 512.083C-185.84 581.647 -45.2225 622.192 106.983 632.596C181.375 637.696 245.619 646.672 301.398 658.657H309.684Z" fill="url(#paint5_linear_344_6128)"></path><path d="M404.61 658.659C328.297 638.463 239.675 626.019 137.544 620.919C-120.154 608.118 -307.905 511.983 -439.336 403.812V406.719C-394.905 443.286 -347.652 475.467 -297.878 503.007C-168.788 574.509 -22.2865 614.799 137.424 622.704C240.936 627.855 325.895 640.707 396.084 658.659H404.61Z" fill="url(#paint6_linear_344_6128)"></path><path d="M495.152 658.664C405.63 630.971 297.195 615.263 167.925 611.081C-108.206 602.054 -304.662 499.187 -439.336 383.672V386.681C-391.243 427.889 -339.607 463.793 -284.849 493.985C-151.736 567.374 0.589322 607.409 167.865 612.866C302.539 617.252 407.011 634.184 488.788 658.664H495.152Z" fill="url(#paint7_linear_344_6128)"></path><path d="M581.192 658.654C560.178 651.157 538.022 644.425 514.786 638.458C426.645 615.814 320.191 603.268 198.306 601.177C-96.6782 596.128 -301.72 486.121 -439.336 363.109V366.169C-387.76 412.273 -331.741 452.002 -271.88 484.897C-134.745 560.275 23.4652 600.004 198.306 602.962C362.34 605.767 483.564 627.238 574.227 658.654H581.192Z" fill="url(#paint8_linear_344_6128)"></path><path d="M673.236 658.654C577.71 618.517 441.956 591.232 245.92 591.232C240.216 591.232 234.512 591.283 228.688 591.334C225.385 591.334 222.083 591.385 218.781 591.385C-90.0135 591.385 -300.46 475.615 -439.336 345.922V348.982C-384.278 400.39 -323.936 444.046 -258.851 479.542C-120.335 554.92 40.3369 593.119 218.661 593.119H228.688C234.452 593.068 240.276 593.017 245.92 593.017C439.074 593.017 573.507 619.486 668.553 658.654H673.236Z" fill="url(#paint9_linear_344_6128)"></path><path d="M744.385 658.657C627.845 605.26 465.192 579.352 259.129 581.443C254.686 581.494 250.243 581.545 245.859 581.545C-80.7071 581.545 -298.478 457.513 -439.336 320.68V323.842C-380.976 380.554 -316.311 428.392 -245.882 466.795C-100.701 545.998 69.2169 585.268 259.129 583.228C462.79 581.188 623.942 606.484 739.882 658.657H744.385Z" fill="url(#paint10_linear_344_6128)"></path><path d="M822.199 658.665C716.886 603.891 552.012 565.743 289.51 571.608C-64.4958 579.411 -294.395 445.536 -439.336 298.758V301.92C-377.793 364.344 -308.745 416.517 -232.913 457.725C-83.7092 538.866 92.0928 577.779 289.57 573.393C549.01 567.63 712.804 604.911 817.936 658.665H822.199Z" fill="url(#paint11_linear_344_6128)"></path><path d="M896.711 658.659C771.524 585.678 577.83 553.089 319.891 561.708C-54.7091 574.305 -292.474 431.505 -439.336 276.414V279.627C-374.671 347.967 -301.24 404.526 -219.944 448.641C-66.7775 531.72 114.969 570.327 319.951 563.493C575.728 554.976 768.162 586.902 893.048 658.659H896.711Z" fill="url(#paint12_linear_344_6128)"></path><path d="M969.422 658.655C842.073 575.321 633.969 539.366 350.272 551.861C-45.2825 569.201 -290.793 417.119 -439.336 253.562V256.826C-371.609 331.388 -293.855 392.588 -206.975 439.559C-49.7856 524.576 137.785 562.928 350.392 553.646C631.988 541.304 838.771 576.545 965.939 658.655H969.422Z" fill="url(#paint13_linear_344_6128)"></path><path d="M1040.03 658.658C911.721 564.665 690.048 525.446 380.653 541.97C-36.2163 564.257 -289.292 402.383 -439.336 230.156V233.471C-368.727 314.561 -286.59 380.606 -194.006 430.535C-32.7939 517.439 160.54 555.536 380.773 543.755C688.126 527.282 908.599 565.94 1036.79 658.658H1040.03Z" fill="url(#paint14_linear_344_6128)"></path><path d="M1108.84 658.655C1105.24 655.697 1101.57 652.79 1097.73 649.883C967.38 551.402 736.34 511.775 411.094 532.124C-27.7503 559.511 -288.211 387.284 -439.336 206.234V209.6C-365.965 297.524 -279.445 368.516 -181.037 421.454C-15.8621 510.296 183.416 548.138 411.214 533.858C735.92 513.56 966.42 553.034 1096.35 651.209C1099.59 653.657 1102.77 656.156 1105.84 658.655H1108.84Z" fill="url(#paint15_linear_344_6128)"></path><path d="M1176.57 658.661C1170.5 653.051 1164.02 647.543 1157.11 642.086C1025.26 537.791 784.493 497.45 441.475 522.236C157.838 541.973 -80.3468 483.272 -266.596 347.765C-335.284 297.785 -392.263 240.461 -439.336 181.148V184.769C-388.661 248.009 -331.201 303.089 -267.977 349.142C-81.3075 484.955 157.478 543.809 441.655 524.021C784.013 499.286 1024.3 539.423 1155.67 643.412C1162.04 648.41 1167.98 653.51 1173.68 658.661H1176.57Z" fill="url(#paint16_linear_344_6128)"></path><path d="M1241.89 658.655C1234.45 651.005 1226.34 643.457 1217.51 636.062C1084.88 525.137 833.968 483.521 471.856 512.336C179.453 535.184 -65.1563 476.483 -255.248 337.865C-329.46 283.754 -390.041 221.024 -439.336 156.203V159.926C-385.959 229.439 -324.716 289.568 -256.629 339.242C-66.117 478.166 179.033 536.969 472.036 514.121C833.547 485.306 1083.86 526.769 1216.01 637.337C1224.36 644.324 1232.04 651.413 1239.13 658.655H1241.89Z" fill="url(#paint17_linear_344_6128)"></path><path d="M1305.96 658.667C1297.73 649.232 1288.84 640.205 1279.18 631.535C1146.66 512.705 885.243 469.304 502.237 502.505C201.068 528.362 -49.9658 469.661 -243.9 328.034C-323.756 269.69 -387.94 201.299 -439.336 130.766V134.591C-383.377 210.683 -318.292 276.014 -245.221 329.36C-50.9264 471.344 200.648 530.198 502.478 504.29C884.823 471.14 1145.58 514.337 1277.62 632.759C1286.86 641.072 1295.45 649.691 1303.37 658.667H1305.96Z" fill="url(#paint18_linear_344_6128)"></path><path d="M1368.76 658.665C1362.99 651.168 1356.63 643.773 1349.67 636.48C1292.69 576.606 1204.3 533.307 1087.1 507.756C944.684 476.697 758.195 471.597 532.618 492.609C222.683 521.526 -34.7752 462.825 -232.492 318.138C-318.172 255.408 -385.959 181.101 -439.336 104.703V108.681C-380.916 191.607 -311.928 262.344 -233.873 319.515C-35.6758 464.508 222.263 523.362 532.859 494.394C758.135 473.382 944.384 478.482 1086.56 509.49C1203.34 534.939 1291.3 578.034 1348.04 637.551C1354.65 644.487 1360.71 651.525 1366.24 658.665H1368.76Z" fill="url(#paint19_linear_344_6128)"></path><path d="M1380.95 658.654C1373.5 648.403 1364.92 638.254 1355.25 628.207C1297.61 568.486 1209.53 524.473 1093.41 497.341C951.709 464.242 766.961 456.082 544.267 473.116C242.858 496.372 -9.13737 435.529 -204.753 292.27C-305.503 218.524 -381.816 129.274 -439.336 39.9219V44.2059C-438.015 46.2459 -436.694 48.2859 -435.373 50.3259C-371.609 147.073 -294.455 228.928 -206.134 293.647C-10.098 437.212 242.497 498.208 544.447 474.901C766.901 457.867 951.409 466.027 1092.81 499.075C1208.51 526.105 1296.23 569.914 1353.63 629.278C1362.99 638.968 1371.28 648.811 1378.61 658.654H1380.95Z" fill="url(#paint20_linear_344_6128)"></path><path d="M1393.56 658.657C1384.49 645.652 1373.8 632.749 1361.31 619.999C1302.89 560.533 1214.99 515.857 1099.89 487.195C958.854 452.005 775.787 440.734 555.855 453.637C4.31193 486.838 -281.546 224.239 -424.265 -1.84356C-429.429 -10.0546 -434.473 -18.2656 -439.336 -26.4766V-22.4986C-435.013 -15.3076 -430.63 -8.16756 -426.127 -1.02756C-335.164 143.149 -217.602 255.298 -76.8644 332.359C99.0577 428.698 311.965 470.11 555.975 455.422C775.667 442.519 958.494 453.79 1099.29 488.878C1213.91 517.438 1301.57 561.961 1359.69 621.121C1371.82 633.463 1382.27 646.06 1391.15 658.657H1393.56Z" fill="url(#paint21_linear_344_6128)"></path><path d="M1406.77 658.665C1396.2 643.008 1383.41 627.3 1367.86 611.796C1308.6 552.687 1220.7 507.399 1106.56 477.207C966.059 439.977 784.613 425.493 567.443 434.163C31.9311 456.705 -252.066 197.829 -396.046 -23.3074C-411.717 -47.3794 -426.127 -71.5534 -439.336 -95.5234V-91.3414C-426.667 -68.4424 -412.858 -45.4414 -397.907 -22.4914C-306.103 118.524 -189.322 229.041 -50.6863 306C122.594 402.186 330.638 445.893 567.563 435.948C784.493 427.278 965.639 441.762 1105.9 478.89C1219.62 508.98 1307.22 554.115 1366.18 612.918C1381.37 628.065 1393.92 643.416 1404.3 658.665H1406.77Z" fill="url(#paint22_linear_344_6128)"></path><path d="M1420.63 658.663C1408.75 640.507 1393.68 621.943 1374.82 603.583C1314.54 544.933 1226.58 499.135 1113.4 467.413C973.264 428.143 793.5 410.395 579.031 414.679C59.5503 426.562 -222.646 171.409 -367.826 -44.7795C-395.205 -85.5285 -418.922 -126.482 -439.336 -166.312V-161.876C-419.342 -123.167 -396.226 -83.4375 -369.688 -43.9125C-277.103 93.8894 -160.983 202.774 -24.448 279.58C146.19 375.664 349.131 421.717 579.091 416.464C793.32 412.231 972.844 429.928 1112.74 469.147C1225.56 500.716 1313.22 546.361 1373.26 604.756C1391.75 622.708 1406.53 640.864 1418.29 658.663H1420.63Z" fill="url(#paint23_linear_344_6128)"></path><path d="M1435.95 658.662C1422.5 637.599 1404.78 615.618 1381.55 593.79C1319.94 535.854 1231.74 489.75 1119.47 456.804C980.049 415.902 802.806 395.196 592.54 395.196H589.778C86.7491 395.196 -193.285 143.919 -339.667 -66.966C-380.195 -125.361 -412.978 -183.909 -439.336 -238.836V-234.144C-413.278 -180.339 -381.035 -123.117 -341.468 -66.099C-248.103 68.439 -132.643 175.59 1.73009 252.396C169.486 348.327 367.324 396.981 589.778 396.981H592.54C1069.21 396.981 1283.8 504.591 1379.93 594.963C1402.74 616.434 1420.21 638.007 1433.54 658.662H1435.95Z" fill="url(#paint24_linear_344_6128)"></path><path d="M1452.16 658.657C1437.39 635.299 1417.03 610.105 1389.17 584.86C1326.13 527.74 1237.63 481.432 1126.07 447.109C986.474 404.218 810.251 380.197 602.267 375.709C114.729 365.152 -163.685 117.394 -311.387 -88.5946C-366.866 -165.911 -408.535 -243.278 -439.336 -311.516V-306.62C-408.715 -239.351 -367.586 -163.514 -313.248 -87.6766C-219.043 43.6483 -104.303 149.116 27.9683 225.871C193.323 321.802 386.477 372.802 602.207 377.494C1072.21 387.592 1288.72 496.477 1387.55 585.982C1415.05 610.87 1435.1 635.605 1449.82 658.657H1452.16Z" fill="url(#paint25_linear_344_6128)"></path><path d="M1469.99 658.656C1452.64 631.218 1426.94 600.057 1388.76 568.437C1323.01 514.02 1233.67 468.987 1123.31 434.562C985.396 391.62 813.977 365.253 613.858 356.175C142.351 334.857 -134.201 90.8221 -283.164 -110.169C-349.03 -199.062 -396.463 -287.547 -429.486 -361.344H-431.707C-398.564 -287.343 -351.071 -198.501 -284.965 -109.302C-190.04 18.8612 -75.9004 122.697 54.2098 199.35C216.863 295.179 405.153 348.525 613.738 357.96C1066.21 378.462 1284.04 484.338 1387.13 569.61C1424.84 600.771 1450.36 631.575 1467.59 658.656H1469.99Z" fill="url(#paint26_linear_344_6128)"></path><path d="M1481.99 650.598V647.028C1462.78 619.488 1433.78 587.103 1390.43 553.902C1322.22 501.678 1232.16 457.563 1122.82 422.781C986.229 379.329 818.893 350.361 625.499 336.693C169.963 304.563 -104.728 64.2001 -254.952 -131.844C-316.915 -212.73 -363.388 -292.953 -397.191 -361.344H-399.473C-365.609 -292.698 -318.957 -212.169 -256.694 -130.875C-160.987 -5.92483 -47.5084 96.2281 80.4404 172.83C240.451 268.557 423.759 324.3 625.318 338.478C1062.84 369.333 1282.11 473.373 1388.99 555.228C1433.6 589.398 1462.9 622.599 1481.99 650.598Z" fill="url(#paint27_linear_344_6128)"></path><path d="M1482 622.089V619.182C1461.16 595.161 1432.16 567.723 1392.05 539.367C1321.44 489.387 1230.72 446.19 1122.47 411C987.132 366.987 823.818 335.469 637.089 317.211C197.644 274.32 -75.1855 37.6292 -226.611 -153.366C-284.551 -226.449 -329.642 -298.563 -363.686 -361.344H-366.027C-331.864 -298.308 -286.652 -225.837 -228.412 -152.448C-131.865 -30.7108 -19.1066 69.8102 106.741 146.31C264.05 241.884 442.434 300.024 636.849 318.996C1059.12 360.255 1279.77 462.255 1390.55 540.642C1431.68 569.712 1461.1 597.762 1482 622.089Z" fill="url(#paint28_linear_344_6128)"></path><path d="M1482 596.487V593.835C1460.08 572.925 1431.26 549.363 1393.74 524.832C1320.66 477.096 1229.28 434.817 1122.05 399.219C988.034 354.696 828.803 320.577 648.738 297.729C225.264 244.026 -45.6435 11.0072 -198.39 -175.041C-251.887 -240.219 -295.057 -304.326 -328.92 -361.344H-331.262C-297.278 -304.071 -253.988 -239.607 -200.131 -174.021C-102.803 -55.4458 9.29459 43.3922 133.04 119.79C287.708 215.262 461.108 275.748 648.438 299.514C1055.82 351.177 1277.91 451.341 1392.47 526.26C1430.84 551.301 1459.96 575.271 1482 596.487Z" fill="url(#paint29_linear_344_6128)"></path><path d="M1482 572.874V570.426C1459.36 552.168 1430.9 531.768 1395.42 510.348C1319.94 464.805 1227.84 423.444 1121.63 387.438C988.934 342.456 833.726 305.685 660.326 278.247C252.943 213.783 -16.1036 -15.5128 -170.05 -196.563C-218.924 -253.989 -259.573 -310.344 -292.716 -361.344H-295.117C-261.854 -310.089 -220.966 -253.377 -171.792 -195.543C-73.6835 -80.1808 37.6937 16.9742 159.338 93.2701C311.304 188.691 479.781 251.523 659.966 280.032C1052.16 342.099 1275.63 440.274 1394.03 511.674C1430.3 533.553 1459.18 554.31 1482 572.874Z" fill="url(#paint30_linear_344_6128)"></path><path d="M1482 550.74V548.394C1458.94 532.431 1430.91 514.683 1397.1 495.864C1274.74 427.779 1049.58 331.389 671.979 258.765C280.687 183.54 13.5017 -42.0838 -141.766 -218.136C-185.596 -267.861 -223.243 -316.515 -254.945 -361.344H-257.406C-225.584 -316.26 -187.698 -267.198 -143.507 -217.065C-44.5586 -104.916 66.1583 -9.39278 185.641 66.8012C334.965 162.069 498.458 227.247 671.498 260.499C1048.8 333.072 1273.72 429.36 1395.96 497.343C1430.36 516.468 1458.76 534.522 1482 550.74Z" fill="url(#paint31_linear_344_6128)"></path><path d="M1482 529.575V527.382C1458.7 513.408 1431.14 497.904 1398.84 481.38C1272.63 416.763 1046.09 322.362 683.563 239.283C308.363 153.348 43.0387 -68.6548 -113.49 -239.709C-151.977 -281.733 -185.96 -322.89 -215.441 -361.344H-217.902C-188.242 -322.584 -153.958 -281.07 -115.171 -238.638C-15.4419 -129.6 94.6145 -35.7598 211.936 40.3322C358.618 135.498 517.068 203.022 683.023 241.017C1045.25 323.994 1271.55 418.293 1397.58 482.808C1430.48 499.638 1458.46 515.397 1482 529.575Z" fill="url(#paint32_linear_344_6128)"></path><path d="M1482 509.328V507.288C1458.64 494.997 1431.57 481.482 1400.52 466.896C1270.53 405.798 1042.68 313.335 695.214 219.801C336.105 123.156 72.6421 -95.1238 -85.1474 -261.231C-117.87 -295.707 -147.531 -329.367 -174.129 -361.344H-176.711C-149.872 -329.061 -119.912 -294.993 -86.8286 -260.109C13.7412 -154.284 123.077 -62.1268 238.237 13.9142C382.217 108.927 535.743 178.797 694.554 221.535C1041.77 315.018 1269.51 407.379 1399.38 468.426C1430.9 483.216 1458.4 496.986 1482 509.328Z" fill="url(#paint33_linear_344_6128)"></path><path d="M1481.99 489.948V487.959C1343.72 424.77 1092.74 321.138 706.795 200.37C363.837 93.0152 102.235 -121.593 -56.8151 -282.702C-83.4135 -309.63 -108.031 -335.997 -130.786 -361.344H-133.488C-110.492 -335.64 -85.4549 -308.916 -58.4962 -281.631C42.8541 -178.968 151.53 -88.4428 264.588 -12.5038C405.926 82.3562 554.469 154.572 706.074 202.002C1092.8 323.025 1343.96 426.861 1481.99 489.948Z" fill="url(#paint34_linear_344_6128)"></path><path d="M1482 470.976V468.936C1336.64 410.949 1082.9 312.468 718.448 180.888C391.582 62.8742 131.841 -148.062 -28.4699 -304.224C-48.4638 -323.655 -67.3769 -342.78 -85.3294 -361.344H-88.0312C-69.7786 -342.423 -50.4452 -322.941 -30.091 -303.102C72.0398 -203.601 180.055 -114.759 290.952 -38.9218C429.588 55.8362 573.148 130.347 717.608 182.52C1082.78 314.355 1336.82 412.989 1482 470.976Z" fill="url(#paint35_linear_344_6128)"></path><path d="M1481.99 452.412V450.474C1330.03 397.536 1073.83 303.696 730.093 161.406C419.317 32.7842 161.438 -174.48 -0.193961 -325.695C-13.0429 -337.731 -25.5315 -349.665 -37.66 -361.344H-40.4219C-27.9933 -349.257 -15.0843 -336.966 -1.75504 -324.522C101.156 -228.234 208.511 -141.024 317.246 -65.2888C453.241 29.3162 591.817 106.173 729.132 162.987C1073.47 305.532 1330.03 399.525 1481.99 452.412Z" fill="url(#paint36_linear_344_6128)"></path><path d="M1482 434.358V432.471C1323.55 384.48 1065.31 294.873 741.682 141.924C447.057 2.69422 191.04 -200.847 28.1466 -347.115C22.863 -351.858 17.5793 -356.601 12.4157 -361.344H9.59375C15.1776 -356.244 20.8215 -351.093 26.5855 -345.942C189.599 -199.572 445.796 4.17322 740.661 143.505C1064.89 296.709 1323.55 386.367 1482 434.358Z" fill="url(#paint37_linear_344_6128)"></path><path d="M1482 416.916V415.029C1459.42 409.164 1435.04 402.483 1409.05 394.884C1260.08 351.381 1025.44 268.812 753.332 122.493C479.482 -24.7948 229.168 -220.482 64.7741 -361.344H61.832C226.286 -220.329 477.44 -23.7748 752.191 123.972C1024.54 270.444 1259.36 353.064 1408.45 396.618C1434.68 404.268 1459.24 411.051 1482 416.916Z" fill="url(#paint38_linear_344_6128)"></path><path d="M1482 399.678V397.842C1459.73 392.895 1435.89 387.132 1410.73 380.553C1257.99 340.62 1021.96 259.989 764.984 103.011C528 -41.6758 297.62 -216.555 119.957 -361.344H116.895C294.918 -216.249 525.958 -40.8088 763.723 104.439C1021 261.621 1257.33 342.303 1410.19 382.287C1435.59 388.917 1459.61 394.68 1482 399.678Z" fill="url(#paint39_linear_344_6128)"></path><path d="M1482 382.797V380.961C1460.08 376.83 1436.84 371.934 1412.41 366.273C1255.88 329.859 1018.47 251.217 776.626 83.5802C565.76 -62.5858 350.63 -225.48 176.81 -361.344H173.688C347.868 -225.225 563.718 -61.6678 775.245 84.9572C1017.45 252.849 1255.16 331.542 1411.93 368.007C1436.48 373.719 1459.9 378.615 1482 382.797Z" fill="url(#paint40_linear_344_6128)"></path><path d="M1482 366.171V364.386C1460.44 360.918 1437.68 356.838 1414.03 351.993C1253.66 319.149 1014.93 242.496 788.214 64.0982C602.385 -82.1188 403.708 -234.099 235.591 -361.344H232.469C400.946 -233.793 600.344 -81.2518 786.773 65.4242C887.103 144.321 998.06 210.06 1116.64 260.907C1211.51 301.554 1311.42 332.817 1413.61 353.778C1437.44 358.674 1460.32 362.754 1482 366.171Z" fill="url(#paint41_linear_344_6128)"></path><path d="M1482 349.749V347.964C1460.81 345.21 1438.65 341.844 1415.66 337.764C1251.5 308.439 1011.4 233.775 799.868 44.6672C637.816 -100.224 456.43 -242.31 295.999 -361.344H292.816C453.668 -242.055 635.714 -99.5098 798.367 45.8912C891.912 129.531 998.846 198.024 1116.11 249.381C1209.95 290.487 1310.64 320.832 1415.3 339.498C1438.41 343.629 1460.69 346.995 1482 349.749Z" fill="url(#paint42_linear_344_6128)"></path><path d="M1482 333.531V331.797C1461.16 329.655 1439.55 326.952 1417.21 323.535C1249.21 297.729 1007.73 225.054 811.511 25.2362C669.272 -119.604 503.197 -253.887 357.776 -361.344H354.594C500.375 -253.734 667.111 -118.992 809.89 26.3582C896.71 114.792 999.561 185.988 1115.56 237.906C1208.39 279.471 1309.8 308.847 1416.91 325.269C1439.37 328.737 1461.1 331.44 1482 333.531Z" fill="url(#paint43_linear_344_6128)"></path><path d="M1482 317.568V315.783C1461.58 314.253 1440.39 312.111 1418.71 309.306C1246.87 287.07 1004.06 216.384 823.098 5.75414C702.294 -134.802 555.132 -260.211 419.678 -361.344H416.496C552.37 -260.058 700.193 -134.241 821.417 6.82514C901.513 100.053 1000.28 173.952 1115.02 226.431C1206.76 268.404 1308.9 296.913 1418.53 311.04C1440.33 313.845 1461.52 315.987 1482 317.568Z" fill="url(#paint44_linear_344_6128)"></path><path d="M1482 301.656V299.922C1461.94 298.902 1441.29 297.321 1420.21 295.077C1244.53 276.36 1000.34 207.663 834.748 -13.6768C733.578 -148.878 605.089 -266.178 481.043 -361.344H477.98C602.387 -266.025 731.416 -148.368 832.947 -12.7078C906.258 85.3142 1000.94 161.865 1114.36 214.956C1205.08 257.388 1307.94 284.928 1420.03 296.811C1441.23 299.055 1461.88 300.636 1482 301.656Z" fill="url(#paint45_linear_344_6128)"></path><path d="M1482 286.05V284.265C1462.37 283.653 1442.25 282.531 1421.72 280.797C1242.13 265.701 996.563 198.942 846.338 -33.1078C779.572 -136.23 690.23 -235.782 580.774 -329.01C567.985 -339.873 554.956 -350.685 541.627 -361.344H538.145C649.942 -271.635 760.779 -161.577 844.477 -32.2408C911.003 70.5242 1001.61 149.829 1113.7 203.43C1203.41 246.321 1306.98 272.943 1421.54 282.582C1442.13 284.316 1462.31 285.438 1482 286.05Z" fill="url(#paint46_linear_344_6128)"></path><path d="M1482 270.495V268.659C1462.78 268.506 1443.09 267.843 1423.1 266.568C1239.67 254.991 992.718 190.221 857.925 -52.5388C798.123 -160.251 713.645 -262.098 606.77 -355.224C604.429 -357.264 602.087 -359.304 599.625 -361.344H596.203C694.671 -276.939 788.216 -174.021 856.063 -51.7738C915.745 55.7852 1002.2 137.742 1112.98 191.904C1201.6 235.254 1305.96 260.958 1423.04 268.353C1443.03 269.628 1462.72 270.291 1482 270.495Z" fill="url(#paint47_linear_344_6128)"></path><path d="M1482 254.991V253.206C1463.15 253.41 1443.93 253.104 1424.48 252.288C1237.15 244.23 988.816 181.449 869.573 -71.9698C820.459 -176.367 748.229 -273.573 654.624 -361.344H651.262C736.221 -281.988 813.674 -185.904 867.592 -71.3068C920.428 40.9952 1002.75 125.655 1112.26 180.378C1199.8 224.136 1304.88 248.973 1424.48 254.073C1443.93 254.889 1463.15 255.195 1482 254.991Z" fill="url(#paint48_linear_344_6128)"></path><path d="M1482 239.589V237.804C1379.99 240.558 1261.94 230.256 1155.97 187.365C1025.26 134.376 932.796 40.5872 881.161 -91.4008C842.554 -189.423 783.653 -279.948 705.719 -361.344H702.477C774.226 -286.782 837.21 -197.328 879.179 -90.8398C930.995 41.6582 1023.82 135.804 1155.07 188.946C1261.34 232.041 1379.69 242.343 1482 239.589Z" fill="url(#paint49_linear_344_6128)"></path><path d="M1482 224.238V222.453C1376.15 227.094 1254.62 217.914 1148.53 173.034C1022.14 119.586 936.101 24.0632 892.751 -110.832C863.451 -202.071 816.798 -285.966 753.514 -361.344H750.332C809.413 -291.474 859.188 -208.497 890.709 -110.373C934.18 25.0322 1020.64 120.912 1147.57 174.615C1254.08 219.648 1375.91 228.879 1482 224.238Z" fill="url(#paint50_linear_344_6128)"></path><path d="M1482 209.142V207.357C1382.69 210.111 1270.11 199.758 1170.98 157.632C1046.76 104.847 961.977 10.8032 919.047 -121.899C889.146 -214.617 842.914 -293.82 786.955 -361.344H784.434C840.633 -293.718 887.105 -214.413 917.066 -121.44C960.116 11.7722 1045.25 106.173 1170.02 159.213C1269.51 201.492 1382.45 211.896 1482 209.142Z" fill="url(#paint51_linear_344_6128)"></path><path d="M1482 193.842V192.006C1389.23 192.975 1285.6 181.653 1193.44 142.281C1071.43 90.1082 987.914 -2.45681 945.405 -132.966C918.626 -215.688 876.717 -292.188 820.338 -361.344H817.816C870.953 -296.472 914.784 -220.737 943.364 -132.456C986.053 -1.48781 1069.93 91.4852 1192.54 143.862C1285.06 183.387 1388.99 194.811 1482 193.842Z" fill="url(#paint52_linear_344_6128)"></path><path d="M1482 178.185V176.451C1396.02 175.737 1301.15 163.497 1215.95 126.93C1096.05 75.4201 1013.91 -15.7168 971.702 -143.982C946.184 -222.471 906.677 -295.299 853.78 -361.344H851.559C901.393 -299.175 942.462 -227.112 969.661 -143.523C1012.05 -14.7478 1094.55 76.7971 1214.99 128.562C1300.55 165.282 1395.72 177.471 1482 178.185Z" fill="url(#paint53_linear_344_6128)"></path><path d="M1482 162.324V160.539C1402.8 158.244 1316.58 145.443 1238.47 111.681C1120.73 60.7832 1039.85 -28.9258 998.001 -155.049C973.744 -229.356 936.518 -298.461 886.984 -361.344H884.102C931.354 -301.98 970.201 -233.487 996.019 -154.59C1037.99 -27.9568 1119.22 62.1602 1237.51 113.262C1315.98 147.177 1402.5 160.029 1482 162.324Z" fill="url(#paint54_linear_344_6128)"></path><path d="M1481.99 146.31V144.525C1409.4 140.751 1331.35 127.542 1260.02 96.4322C1144.74 46.0952 1065.42 -42.2368 1024.36 -166.065C1001 -236.394 965.755 -301.674 919.463 -361.344H916.941C963.534 -301.572 998.898 -236.139 1022.31 -165.606C1063.56 -41.2168 1143.24 47.4722 1259.06 98.0132C1330.69 129.327 1409.16 142.587 1481.99 146.31Z" fill="url(#paint55_linear_344_6128)"></path><path d="M1481.99 129.684V127.899C1416.37 122.952 1346.66 109.539 1282.35 81.2342C1169.3 31.5092 1091.36 -55.4458 1050.65 -177.132C1028.5 -243.483 995.895 -304.938 952.905 -361.344H949.543C993.253 -304.632 1026.52 -242.871 1048.67 -176.673C1089.5 -54.4768 1167.79 32.8352 1281.39 82.8662C1346 111.324 1416.07 124.737 1481.99 129.684Z" fill="url(#paint56_linear_344_6128)"></path><path d="M1482 112.701V110.916C1423.4 104.847 1361.97 91.5362 1304.76 66.1382C1193.92 16.9232 1117.24 -68.6038 1076.96 -188.199C1056.06 -250.317 1025.68 -308.1 985.994 -361.344H983.172C1028.02 -301.47 1056.72 -241.902 1074.98 -187.689C1115.38 -67.6348 1192.42 18.3002 1303.79 67.7192C1361.37 93.3212 1423.16 106.683 1482 112.701Z" fill="url(#paint57_linear_344_6128)"></path><path d="M1482 95.2591V93.4231C1430.6 86.5891 1377.28 73.6351 1327.15 51.1442C1218.53 2.43916 1143.18 -81.8128 1103.31 -199.215C1083.62 -257.202 1055.4 -311.262 1018.78 -361.344H1015.77C1057.26 -305.091 1084.1 -249.399 1101.27 -198.756C1141.32 -80.7928 1217.03 3.76516 1326.19 52.7252C1376.68 75.3691 1430.3 88.3741 1482 95.2591Z" fill="url(#paint58_linear_344_6128)"></path><path d="M1482 77.1542V75.3692C1437.87 67.9742 1392.6 55.6832 1349.55 36.2012C1243.15 -11.9938 1169.18 -94.9198 1129.61 -210.282C1111.18 -264.087 1085.18 -314.475 1051.62 -361.344H1049.58C1083.02 -314.526 1109.02 -263.985 1127.63 -209.772C1167.32 -93.9508 1241.65 -10.6678 1348.59 37.7822C1391.94 57.4172 1437.57 69.7592 1482 77.1542Z" fill="url(#paint59_linear_344_6128)"></path><path d="M1482 58.4882V56.6522C1445.25 49.0532 1407.84 37.7822 1372 21.3092C1267.83 -26.4268 1195.12 -108.078 1155.97 -221.349C1138.8 -271.023 1114.9 -317.739 1084.34 -361.344H1082.06C1112.62 -317.739 1136.64 -270.87 1153.93 -220.839C1193.26 -107.058 1266.33 -25.1008 1370.98 22.8902C1407.18 39.5162 1444.89 50.8892 1482 58.4882Z" fill="url(#paint60_linear_344_6128)"></path><path d="M1482 39.0572V37.1702C1367.56 8.15116 1241.29 -63.5548 1182.27 -232.365C1166.36 -277.959 1144.56 -321.003 1117 -361.344H1114.48C1142.28 -320.952 1164.19 -277.755 1180.23 -231.855C1211.57 -142.197 1264.28 -72.0718 1336.93 -23.4688C1378.84 4.58116 1427.48 25.5422 1482 39.0572Z" fill="url(#paint61_linear_344_6128)"></path><path d="M1482 18.6062V16.6172C1376.74 -15.3598 1263.81 -87.0658 1208.57 -243.432C1193.92 -284.946 1174.22 -324.267 1149.61 -361.344H1147.27C1171.04 -325.644 1191.28 -286.323 1206.59 -242.922C1237.21 -156.12 1288 -87.8308 1357.53 -39.9418C1394.04 -14.7988 1435.71 4.78524 1482 18.6062Z" fill="url(#paint62_linear_344_6128)"></path></g></g><defs><linearGradient id="paint0_linear_344_6128" x1="25.9762" y1="-7.45362e-06" x2="1328.15" y2="775.411" gradientUnits="userSpaceOnUse"><stop offset="0.373268" stop-color="#2C69BB"></stop><stop offset="0.741943" stop-color="#50A2F3"></stop><stop offset="0.817375" stop-color="#66DDEE"></stop></linearGradient><linearGradient id="paint1_linear_344_6128" x1="25.9762" y1="-7.45362e-06" x2="1328.15" y2="775.411" gradientUnits="userSpaceOnUse"><stop offset="0.373268" stop-color="#2C69BB"></stop><stop offset="0.741943" stop-color="#50A2F3"></stop><stop offset="0.817375" stop-color="#66DDEE"></stop></linearGradient><linearGradient id="paint2_linear_344_6128" x1="-2.42961" y1="481.726" x2="-284.742" y2="780.693" gradientUnits="userSpaceOnUse"><stop offset="0.233911" stop-color="#2C69BB"></stop><stop offset="1" stop-color="#66DDEE"></stop></linearGradient><linearGradient id="paint3_linear_344_6128" x1="99.529" y1="463.381" x2="-208.202" y2="827.547" gradientUnits="userSpaceOnUse"><stop offset="0.233911" stop-color="#2C69BB"></stop><stop offset="1" stop-color="#66DDEE"></stop></linearGradient><linearGradient id="paint4_linear_344_6128" x1="200.896" y1="444.625" x2="-130.842" y2="870.178" gradientUnits="userSpaceOnUse"><stop offset="0.233911" stop-color="#2C69BB"></stop><stop offset="1" stop-color="#66DDEE"></stop></linearGradient><linearGradient id="paint5_linear_344_6128" x1="299.302" y1="425.514" x2="-56.4734" y2="908.895" gradientUnits="userSpaceOnUse"><stop offset="0.233911" stop-color="#2C69BB"></stop><stop offset="1" stop-color="#66DDEE"></stop></linearGradient><linearGradient id="paint6_linear_344_6128" x1="392.912" y1="406.053" x2="12.1611" y2="944.022" gradientUnits="userSpaceOnUse"><stop offset="0.233911" stop-color="#2C69BB"></stop><stop offset="1" stop-color="#66DDEE"></stop></linearGradient><linearGradient id="paint7_linear_344_6128" x1="482.199" y1="386.09" x2="74.9855" y2="976.505" gradientUnits="userSpaceOnUse"><stop offset="0.233911" stop-color="#2C69BB"></stop><stop offset="1" stop-color="#66DDEE"></stop></linearGradient><linearGradient id="paint8_linear_344_6128" x1="567.046" y1="365.708" x2="131.926" y2="1006.76" gradientUnits="userSpaceOnUse"><stop offset="0.233911" stop-color="#2C69BB"></stop><stop offset="1" stop-color="#66DDEE"></stop></linearGradient><linearGradient id="paint9_linear_344_6128" x1="657.815" y1="348.672" x2="202.607" y2="1039.62" gradientUnits="userSpaceOnUse"><stop offset="0.233911" stop-color="#2C69BB"></stop><stop offset="1" stop-color="#66DDEE"></stop></linearGradient><linearGradient id="paint10_linear_344_6128" x1="727.978" y1="323.652" x2="233.028" y2="1063.26" gradientUnits="userSpaceOnUse"><stop offset="0.233911" stop-color="#2C69BB"></stop><stop offset="1" stop-color="#66DDEE"></stop></linearGradient><linearGradient id="paint11_linear_344_6128" x1="804.713" y1="301.923" x2="277.809" y2="1089.91" gradientUnits="userSpaceOnUse"><stop offset="0.233911" stop-color="#2C69BB"></stop><stop offset="1" stop-color="#66DDEE"></stop></linearGradient><linearGradient id="paint12_linear_344_6128" x1="878.192" y1="279.775" x2="317.981" y2="1115.21" gradientUnits="userSpaceOnUse"><stop offset="0.233911" stop-color="#2C69BB"></stop><stop offset="1" stop-color="#66DDEE"></stop></linearGradient><linearGradient id="paint13_linear_344_6128" x1="949.895" y1="257.125" x2="355.063" y2="1139.71" gradientUnits="userSpaceOnUse"><stop offset="0.233911" stop-color="#2C69BB"></stop><stop offset="1" stop-color="#66DDEE"></stop></linearGradient><linearGradient id="paint14_linear_344_6128" x1="1019.52" y1="233.924" x2="388.614" y2="1163.26" gradientUnits="userSpaceOnUse"><stop offset="0.233911" stop-color="#2C69BB"></stop><stop offset="1" stop-color="#66DDEE"></stop></linearGradient><linearGradient id="paint15_linear_344_6128" x1="1087.38" y1="210.213" x2="419.094" y2="1185.92" gradientUnits="userSpaceOnUse"><stop offset="0.233911" stop-color="#2C69BB"></stop><stop offset="1" stop-color="#66DDEE"></stop></linearGradient><linearGradient id="paint16_linear_344_6128" x1="1154.17" y1="185.347" x2="446.005" y2="1207.8" gradientUnits="userSpaceOnUse"><stop offset="0.233911" stop-color="#2C69BB"></stop><stop offset="1" stop-color="#66DDEE"></stop></linearGradient><linearGradient id="paint17_linear_344_6128" x1="1218.59" y1="160.621" x2="470.521" y2="1228.58" gradientUnits="userSpaceOnUse"><stop offset="0.233911" stop-color="#2C69BB"></stop><stop offset="1" stop-color="#66DDEE"></stop></linearGradient><linearGradient id="paint18_linear_344_6128" x1="1281.76" y1="135.408" x2="492.626" y2="1248.55" gradientUnits="userSpaceOnUse"><stop offset="0.233911" stop-color="#2C69BB"></stop><stop offset="1" stop-color="#66DDEE"></stop></linearGradient><linearGradient id="paint19_linear_344_6128" x1="1343.7" y1="109.574" x2="512.137" y2="1267.59" gradientUnits="userSpaceOnUse"><stop offset="0.233911" stop-color="#2C69BB"></stop><stop offset="1" stop-color="#66DDEE"></stop></linearGradient><linearGradient id="paint20_linear_344_6128" x1="1355.72" y1="45.3626" x2="400.321" y2="1244.59" gradientUnits="userSpaceOnUse"><stop offset="0.233911" stop-color="#2C69BB"></stop><stop offset="1" stop-color="#66DDEE"></stop></linearGradient><linearGradient id="paint21_linear_344_6128" x1="1368.15" y1="-20.452" x2="292.199" y2="1207.65" gradientUnits="userSpaceOnUse"><stop offset="0.233911" stop-color="#2C69BB"></stop><stop offset="1" stop-color="#66DDEE"></stop></linearGradient><linearGradient id="paint22_linear_344_6128" x1="1381.18" y1="-88.8916" x2="187.531" y2="1157.72" gradientUnits="userSpaceOnUse"><stop offset="0.233911" stop-color="#2C69BB"></stop><stop offset="1" stop-color="#66DDEE"></stop></linearGradient><linearGradient id="paint23_linear_344_6128" x1="1394.85" y1="-159.058" x2="88.9264" y2="1097.16" gradientUnits="userSpaceOnUse"><stop offset="0.233911" stop-color="#2C69BB"></stop><stop offset="1" stop-color="#66DDEE"></stop></linearGradient><linearGradient id="paint24_linear_344_6128" x1="1409.95" y1="-230.944" x2="-2.51848" y2="1028.25" gradientUnits="userSpaceOnUse"><stop offset="0.233911" stop-color="#2C69BB"></stop><stop offset="1" stop-color="#66DDEE"></stop></linearGradient><linearGradient id="paint25_linear_344_6128" x1="1425.94" y1="-302.985" x2="-85.3019" y2="954.116" gradientUnits="userSpaceOnUse"><stop offset="0.233911" stop-color="#2C69BB"></stop><stop offset="1" stop-color="#66DDEE"></stop></linearGradient><linearGradient id="paint26_linear_344_6128" x1="1443.63" y1="-352.375" x2="-130.831" y2="900.061" gradientUnits="userSpaceOnUse"><stop offset="0.233911" stop-color="#2C69BB"></stop><stop offset="1" stop-color="#66DDEE"></stop></linearGradient><linearGradient id="paint27_linear_344_6128" x1="1455.91" y1="-352.445" x2="-105.135" y2="885.89" gradientUnits="userSpaceOnUse"><stop offset="0.233911" stop-color="#2C69BB"></stop><stop offset="1" stop-color="#66DDEE"></stop></linearGradient><linearGradient id="paint28_linear_344_6128" x1="1456.38" y1="-352.696" x2="-64.2867" y2="866.511" gradientUnits="userSpaceOnUse"><stop offset="0.233911" stop-color="#2C69BB"></stop><stop offset="1" stop-color="#66DDEE"></stop></linearGradient><linearGradient id="paint29_linear_344_6128" x1="1456.86" y1="-352.921" x2="-26.5578" y2="845.242" gradientUnits="userSpaceOnUse"><stop offset="0.233911" stop-color="#2C69BB"></stop><stop offset="1" stop-color="#66DDEE"></stop></linearGradient><linearGradient id="paint30_linear_344_6128" x1="1457.36" y1="-353.129" x2="9.05938" y2="822.331" gradientUnits="userSpaceOnUse"><stop offset="0.233911" stop-color="#2C69BB"></stop><stop offset="1" stop-color="#66DDEE"></stop></linearGradient><linearGradient id="paint31_linear_344_6128" x1="1457.89" y1="-353.323" x2="43.1682" y2="797.792" gradientUnits="userSpaceOnUse"><stop offset="0.233911" stop-color="#2C69BB"></stop><stop offset="1" stop-color="#66DDEE"></stop></linearGradient><linearGradient id="paint32_linear_344_6128" x1="1458.43" y1="-353.51" x2="76.3996" y2="771.575" gradientUnits="userSpaceOnUse"><stop offset="0.233911" stop-color="#2C69BB"></stop><stop offset="1" stop-color="#66DDEE"></stop></linearGradient><linearGradient id="paint33_linear_344_6128" x1="1459.01" y1="-353.688" x2="108.805" y2="743.792" gradientUnits="userSpaceOnUse"><stop offset="0.233911" stop-color="#2C69BB"></stop><stop offset="1" stop-color="#66DDEE"></stop></linearGradient><linearGradient id="paint34_linear_344_6128" x1="1459.6" y1="-353.858" x2="140.511" y2="714.16" gradientUnits="userSpaceOnUse"><stop offset="0.233911" stop-color="#2C69BB"></stop><stop offset="1" stop-color="#66DDEE"></stop></linearGradient><linearGradient id="paint35_linear_344_6128" x1="1460.24" y1="-354.025" x2="172.175" y2="682.632" gradientUnits="userSpaceOnUse"><stop offset="0.233911" stop-color="#2C69BB"></stop><stop offset="1" stop-color="#66DDEE"></stop></linearGradient><linearGradient id="paint36_linear_344_6128" x1="1460.89" y1="-354.188" x2="203.817" y2="649.229" gradientUnits="userSpaceOnUse"><stop offset="0.233911" stop-color="#2C69BB"></stop><stop offset="1" stop-color="#66DDEE"></stop></linearGradient><linearGradient id="paint37_linear_344_6128" x1="1461.59" y1="-354.347" x2="235.455" y2="613.694" gradientUnits="userSpaceOnUse"><stop offset="0.233911" stop-color="#2C69BB"></stop><stop offset="1" stop-color="#66DDEE"></stop></linearGradient><linearGradient id="paint38_linear_344_6128" x1="1462.31" y1="-354.5" x2="267.046" y2="576.093" gradientUnits="userSpaceOnUse"><stop offset="0.233911" stop-color="#2C69BB"></stop><stop offset="1" stop-color="#66DDEE"></stop></linearGradient><linearGradient id="paint39_linear_344_6128" x1="1463.08" y1="-354.652" x2="299.351" y2="535.989" gradientUnits="userSpaceOnUse"><stop offset="0.233911" stop-color="#2C69BB"></stop><stop offset="1" stop-color="#66DDEE"></stop></linearGradient><linearGradient id="paint40_linear_344_6128" x1="1463.86" y1="-354.8" x2="332.107" y2="494.161" gradientUnits="userSpaceOnUse"><stop offset="0.233911" stop-color="#2C69BB"></stop><stop offset="1" stop-color="#66DDEE"></stop></linearGradient><linearGradient id="paint41_linear_344_6128" x1="1464.68" y1="-354.946" x2="365.697" y2="450.384" gradientUnits="userSpaceOnUse"><stop offset="0.233911" stop-color="#2C69BB"></stop><stop offset="1" stop-color="#66DDEE"></stop></linearGradient><linearGradient id="paint42_linear_344_6128" x1="1465.52" y1="-355.091" x2="400.283" y2="404.972" gradientUnits="userSpaceOnUse"><stop offset="0.233911" stop-color="#2C69BB"></stop><stop offset="1" stop-color="#66DDEE"></stop></linearGradient><linearGradient id="paint43_linear_344_6128" x1="1466.37" y1="-355.233" x2="436.052" y2="357.988" gradientUnits="userSpaceOnUse"><stop offset="0.233911" stop-color="#2C69BB"></stop><stop offset="1" stop-color="#66DDEE"></stop></linearGradient><linearGradient id="paint44_linear_344_6128" x1="1467.23" y1="-355.374" x2="472.765" y2="310.526" gradientUnits="userSpaceOnUse"><stop offset="0.233911" stop-color="#2C69BB"></stop><stop offset="1" stop-color="#66DDEE"></stop></linearGradient><linearGradient id="paint45_linear_344_6128" x1="1468.08" y1="-355.514" x2="510.566" y2="263.149" gradientUnits="userSpaceOnUse"><stop offset="0.233911" stop-color="#2C69BB"></stop><stop offset="1" stop-color="#66DDEE"></stop></linearGradient><linearGradient id="paint46_linear_344_6128" x1="1468.92" y1="-355.651" x2="548.964" y2="216.596" gradientUnits="userSpaceOnUse"><stop offset="0.233911" stop-color="#2C69BB"></stop><stop offset="1" stop-color="#66DDEE"></stop></linearGradient><linearGradient id="paint47_linear_344_6128" x1="1469.72" y1="-355.788" x2="587.819" y2="171.718" gradientUnits="userSpaceOnUse"><stop offset="0.233911" stop-color="#2C69BB"></stop><stop offset="1" stop-color="#66DDEE"></stop></linearGradient><linearGradient id="paint48_linear_344_6128" x1="1470.48" y1="-355.924" x2="626.536" y2="129.364" gradientUnits="userSpaceOnUse"><stop offset="0.233911" stop-color="#2C69BB"></stop><stop offset="1" stop-color="#66DDEE"></stop></linearGradient><linearGradient id="paint49_linear_344_6128" x1="1471.19" y1="-356.056" x2="664.261" y2="90.2369" gradientUnits="userSpaceOnUse"><stop offset="0.233911" stop-color="#2C69BB"></stop><stop offset="1" stop-color="#66DDEE"></stop></linearGradient><linearGradient id="paint50_linear_344_6128" x1="1471.86" y1="-356.185" x2="701.04" y2="53.982" gradientUnits="userSpaceOnUse"><stop offset="0.233911" stop-color="#2C69BB"></stop><stop offset="1" stop-color="#66DDEE"></stop></linearGradient><linearGradient id="paint51_linear_344_6128" x1="1472.33" y1="-356.324" x2="730.866" y2="30.2169" gradientUnits="userSpaceOnUse"><stop offset="0.233911" stop-color="#2C69BB"></stop><stop offset="1" stop-color="#66DDEE"></stop></linearGradient><linearGradient id="paint52_linear_344_6128" x1="1472.79" y1="-356.461" x2="760.484" y2="7.07875" gradientUnits="userSpaceOnUse"><stop offset="0.233911" stop-color="#2C69BB"></stop><stop offset="1" stop-color="#66DDEE"></stop></linearGradient><linearGradient id="paint53_linear_344_6128" x1="1473.26" y1="-356.599" x2="790.681" y2="-16.3013" gradientUnits="userSpaceOnUse"><stop offset="0.233911" stop-color="#2C69BB"></stop><stop offset="1" stop-color="#66DDEE"></stop></linearGradient><linearGradient id="paint54_linear_344_6128" x1="1473.71" y1="-356.739" x2="820.48" y2="-38.5281" gradientUnits="userSpaceOnUse"><stop offset="0.233911" stop-color="#2C69BB"></stop><stop offset="1" stop-color="#66DDEE"></stop></linearGradient><linearGradient id="paint55_linear_344_6128" x1="1474.16" y1="-356.88" x2="850.885" y2="-60.8862" gradientUnits="userSpaceOnUse"><stop offset="0.233911" stop-color="#2C69BB"></stop><stop offset="1" stop-color="#66DDEE"></stop></linearGradient><linearGradient id="paint56_linear_344_6128" x1="1474.61" y1="-357.026" x2="881.743" y2="-82.7345" gradientUnits="userSpaceOnUse"><stop offset="0.233911" stop-color="#2C69BB"></stop><stop offset="1" stop-color="#66DDEE"></stop></linearGradient><linearGradient id="paint57_linear_344_6128" x1="1475.08" y1="-357.175" x2="913.885" y2="-105.218" gradientUnits="userSpaceOnUse"><stop offset="0.233911" stop-color="#2C69BB"></stop><stop offset="1" stop-color="#66DDEE"></stop></linearGradient><linearGradient id="paint58_linear_344_6128" x1="1475.53" y1="-357.329" x2="945.823" y2="-126.56" gradientUnits="userSpaceOnUse"><stop offset="0.233911" stop-color="#2C69BB"></stop><stop offset="1" stop-color="#66DDEE"></stop></linearGradient><linearGradient id="paint59_linear_344_6128" x1="1476" y1="-357.488" x2="979.372" y2="-148.532" gradientUnits="userSpaceOnUse"><stop offset="0.233911" stop-color="#2C69BB"></stop><stop offset="1" stop-color="#66DDEE"></stop></linearGradient><linearGradient id="paint60_linear_344_6128" x1="1476.45" y1="-357.652" x2="1012.46" y2="-169.067" gradientUnits="userSpaceOnUse"><stop offset="0.233911" stop-color="#2C69BB"></stop><stop offset="1" stop-color="#66DDEE"></stop></linearGradient><linearGradient id="paint61_linear_344_6128" x1="1476.9" y1="-357.823" x2="1046.15" y2="-189.134" gradientUnits="userSpaceOnUse"><stop offset="0.233911" stop-color="#2C69BB"></stop><stop offset="1" stop-color="#66DDEE"></stop></linearGradient><linearGradient id="paint62_linear_344_6128" x1="1477.36" y1="-358.003" x2="1080.88" y2="-208.974" gradientUnits="userSpaceOnUse"><stop offset="0.233911" stop-color="#2C69BB"></stop><stop offset="1" stop-color="#66DDEE"></stop></linearGradient></defs></svg>